<svg xmlns="http://www.w3.org/2000/svg" viewBox="0 0 512 512" role="img" aria-label="Sticker Swap icon">
  <defs>
    <linearGradient id="bg" x1="64" y1="32" x2="448" y2="512" gradientUnits="userSpaceOnUse">
      <stop stop-color="#061326"/>
      <stop offset=".62" stop-color="#0b1d38"/>
      <stop offset="1" stop-color="#12345f"/>
    </linearGradient>
    <linearGradient id="card" x1="176" y1="96" x2="360" y2="392" gradientUnits="userSpaceOnUse">
      <stop stop-color="#ffffff"/>
      <stop offset=".7" stop-color="#f2f7ff"/>
      <stop offset="1" stop-color="#d8e9ff"/>
    </linearGradient>
  </defs>
  <rect width="512" height="512" rx="112" fill="url(#bg)"/>
  <circle cx="260" cy="260" r="190" fill="none" stroke="#0ea5e9" stroke-width="7" opacity=".35"/>
  <rect x="166" y="74" width="226" height="312" rx="32" transform="rotate(4 279 230)" fill="#f5c842"/>
  <rect x="184" y="94" width="190" height="270" rx="24" transform="rotate(4 279 230)" fill="url(#card)"/>
  <path d="M214 122h112m-122 34h132" stroke="#12345f" stroke-width="7" stroke-linecap="round" opacity=".42"/>
  <path d="M144 316c-58-70-28-174 55-213" fill="none" stroke="#0ea5e9" stroke-width="34" stroke-linecap="round"/>
  <path d="m202 91-15 64-57-32" fill="#0ea5e9"/>
  <path d="M354 166c66 62 49 171-27 221" fill="none" stroke="#f5c842" stroke-width="34" stroke-linecap="round"/>
  <path d="m314 409 64-15-33-56" fill="#f5c842"/>
  <circle cx="164" cy="334" r="66" fill="#f2f7ff" stroke="#061326" stroke-width="8"/>
  <path fill="#061326" d="m164 284 24 18-9 29h-30l-9-29 24-18Zm-46 45 28-3 12 27-22 19-25-15 7-28Zm92 0 7 28-25 15-22-19 12-27 28 3Zm-64 67 18-22 18 22-7 27h-22l-7-27Z"/>
  <path d="M112 334c28-10 79-10 104 0M132 290c16 34 16 73 0 103M196 290c-16 34-16 73 0 103" fill="none" stroke="#061326" stroke-width="6" opacity=".62"/>
  <path d="M180 103 352 378" stroke="#f2f7ff" stroke-width="10" stroke-linecap="round" opacity=".42"/>
</svg>
