<svg xmlns="http://www.w3.org/2000/svg" viewBox="0 0 512 512" role="img" aria-label="Sticker Swap app icon">
  <defs>
    <linearGradient id="bg" x1="80" y1="24" x2="430" y2="492" gradientUnits="userSpaceOnUse">
      <stop stop-color="#10231f"/>
      <stop offset=".56" stop-color="#07110f"/>
      <stop offset="1" stop-color="#0f2b24"/>
    </linearGradient>
    <linearGradient id="foil" x1="128" y1="140" x2="390" y2="366" gradientUnits="userSpaceOnUse">
      <stop stop-color="#c99a35"/>
      <stop offset=".28" stop-color="#fff2b8"/>
      <stop offset=".52" stop-color="#f6d779"/>
      <stop offset=".72" stop-color="#35d0be"/>
      <stop offset="1" stop-color="#ff7a5f"/>
    </linearGradient>
    <filter id="shadow" x="-30%" y="-30%" width="160%" height="160%">
      <feDropShadow dx="0" dy="18" stdDeviation="18" flood-color="#000" flood-opacity=".45"/>
    </filter>
  </defs>
  <rect width="512" height="512" rx="104" fill="url(#bg)"/>
  <path d="M64 372c96-42 207-45 384-10" fill="none" stroke="#2f6f5c" stroke-width="8" opacity=".4"/>
  <path d="M68 126c105 38 239 40 376 6" fill="none" stroke="#f7efd9" stroke-width="5" opacity=".08"/>
  <g filter="url(#shadow)" transform="rotate(-7 256 256)">
    <rect x="136" y="90" width="240" height="324" rx="28" fill="#f7efd9"/>
    <rect x="154" y="110" width="204" height="284" rx="20" fill="#fff9e8" stroke="url(#foil)" stroke-width="12"/>
    <path d="M180 164h152M180 208h152M180 252h152M180 296h152M180 340h152" stroke="#eadfbd" stroke-width="6" opacity=".75"/>
    <path d="M180 164v176M230 164v176M282 164v176M332 164v176" stroke="#eadfbd" stroke-width="5" opacity=".55"/>
    <path d="M188 142c40-20 96-28 166-20" fill="none" stroke="#fff2b8" stroke-width="8" opacity=".68"/>
  </g>
  <path d="M138 310h184l-42-42m42 42-42 42" fill="none" stroke="#35d0be" stroke-width="28" stroke-linecap="round" stroke-linejoin="round"/>
  <path d="M374 204H190l42-42m-42 42 42 42" fill="none" stroke="#f6d779" stroke-width="28" stroke-linecap="round" stroke-linejoin="round"/>
  <path d="M102 420c98-32 215-34 308-8" fill="none" stroke="#fff2b8" stroke-width="5" opacity=".28"/>
</svg>
